<?xml version="1.0" standalone="no"?>
<!DOCTYPE svg PUBLIC "-//W3C//DTD SVG 20010904//EN"
 "http://www.w3.org/TR/2001/REC-SVG-20010904/DTD/svg10.dtd">
<svg version="1.0" xmlns="http://www.w3.org/2000/svg"
 width="432.000000pt" height="432.000000pt" viewBox="0 0 432.000000 432.000000"
 preserveAspectRatio="xMidYMid meet">
<metadata>
Created by potrace 1.11, written by Peter Selinger 2001-2013
</metadata>
<g transform="translate(0.000000,432.000000) scale(0.100000,-0.100000)"
fill="#000000" stroke="none">
<path d="M1622 4228 c35 -51 67 -98 71 -105 6 -9 -402 -257 -643 -391 -25 -13
-92 -53 -150 -87 -102 -60 -258 -151 -330 -193 -129 -74 -295 -173 -304 -182
-5 -5 -9 -49 -8 -100 1 -49 0 -90 -1 -90 -2 0 -57 65 -121 145 -65 80 -120
145 -122 145 -13 0 -1 -89 14 -106 9 -10 65 -78 123 -149 l106 -130 1 -875 c0
-481 1 -894 1 -916 1 -39 4 -43 48 -67 27 -14 116 -65 199 -114 l152 -89 -64
-133 c-35 -74 -64 -135 -64 -137 0 -2 -23 -52 -51 -111 -63 -132 -122 -258
-159 -338 -15 -33 -42 -89 -59 -124 -17 -36 -31 -68 -31 -73 0 -4 13 -8 28 -8
26 0 32 8 75 98 69 147 141 299 175 372 16 36 51 110 77 165 25 55 63 135 82
178 20 42 39 77 43 77 4 0 124 -68 266 -151 142 -84 275 -161 294 -172 19 -10
36 -20 38 -22 1 -1 -63 -122 -143 -268 -80 -147 -145 -269 -145 -272 0 -4 14
-5 31 -3 30 3 38 14 165 247 74 135 134 249 134 253 0 4 4 8 9 8 6 0 164 -90
352 -200 248 -145 349 -199 366 -196 13 3 49 20 80 38 32 18 64 36 73 41 8 4
60 34 115 67 111 65 99 66 156 -10 15 -19 35 -44 45 -55 28 -30 91 -109 93
-117 5 -14 70 -78 80 -78 5 0 14 8 20 17 9 17 11 16 30 -1 12 -11 23 -17 25
-15 2 2 32 56 66 119 60 109 82 151 149 273 15 28 45 84 66 122 21 39 54 99
74 135 20 36 42 77 49 91 12 22 175 124 430 269 15 8 53 30 85 49 32 18 59 32
61 30 1 -2 13 -20 26 -39 13 -19 27 -37 30 -40 3 -3 26 -36 52 -75 25 -38 73
-108 105 -155 32 -47 88 -128 123 -180 35 -52 67 -97 70 -100 3 -3 34 -49 70
-103 l65 -98 3 47 c4 54 31 10 -390 622 -54 78 -98 146 -98 152 0 5 12 16 28
24 l27 14 -1 418 -2 419 28 50 c15 28 51 95 80 150 29 55 56 105 60 110 4 6
26 46 50 90 61 114 110 205 130 240 9 17 33 60 54 97 33 59 37 74 34 123 l-3
57 -31 -60 c-18 -33 -44 -80 -58 -106 -46 -82 -72 -129 -151 -276 -43 -80 -87
-161 -98 -180 -11 -19 -35 -64 -55 -100 -19 -36 -36 -66 -37 -68 -1 -1 -2 254
-2 568 0 350 -4 575 -10 581 -5 5 -175 106 -379 225 -203 118 -373 219 -377
223 -4 4 24 65 63 135 38 70 70 128 70 130 0 2 27 52 60 111 33 59 60 109 60
111 0 2 14 26 30 54 17 28 30 53 30 55 0 3 -15 5 -32 5 -35 -1 -34 2 -311
-516 l-28 -53 -32 18 c-18 10 -125 73 -240 140 -114 67 -222 130 -240 140 -25
14 -277 161 -284 165 -1 1 7 17 16 37 33 68 33 69 -2 69 -29 0 -35 -5 -46 -35
-7 -19 -16 -35 -21 -35 -6 0 -33 14 -61 32 -28 17 -64 31 -79 31 -15 0 -53
-16 -86 -35 -32 -20 -75 -45 -94 -56 -19 -10 -58 -33 -87 -50 l-52 -31 -61 90
c-57 83 -63 89 -96 89 l-35 0 63 -92z m1490 -3530 c-10 -13 -29 -47 -102 -183
-24 -44 -53 -98 -65 -120 -12 -22 -39 -71 -60 -110 -38 -71 -64 -118 -111
-202 -23 -39 -29 -44 -38 -31 -17 23 -70 89 -158 196 -43 51 -78 96 -78 100 0
4 58 40 128 80 70 40 188 108 262 152 135 80 222 129 229 130 2 0 -1 -6 -7
-12z"/>
</g>
</svg>
